HIERARCHY
ROOT Pelvis
{
	OFFSET 0.000000 0.000000 0.000000
	CHANNELS 6 Xposition Yposition Zposition Xrotation Yrotation Zrotation
	JOINT LeftUpLeg_virtual
	{
		OFFSET 0.000000 0.000000 0.000000
		CHANNELS 3 Xrotation Yrotation Zrotation
		JOINT LeftUpLeg
		{
			OFFSET 18.735201 -5.666702 -4.541200
			CHANNELS 3 Xrotation Yrotation Zrotation
			JOINT LeftLeg
			{
				OFFSET -0.021200 -31.938179 0.493100
				CHANNELS 3 Xrotation Yrotation Zrotation
				JOINT LeftFoot
				{
					OFFSET 0.021200 -31.938179 -4.336299
					CHANNELS 3 Xrotation Yrotation Zrotation
					JOINT LeftToeBase
					{
						OFFSET 0.943001 -26.722000 15.023500
						CHANNELS 3 Xrotation Yrotation Zrotation
						End Site
						{
							OFFSET 0 0 0
						}
					}
				}
			}
		}
	}
	JOINT RightUpLeg_virtual
	{
		OFFSET 0.000000 0.000000 0.000000
		CHANNELS 3 Xrotation Yrotation Zrotation
		JOINT RightUpLeg
		{
			OFFSET -18.735201 -5.666702 -4.541200
			CHANNELS 3 Xrotation Yrotation Zrotation
			JOINT RightLeg
			{
				OFFSET 0.018946 -31.938133 0.493100
				CHANNELS 3 Xrotation Yrotation Zrotation
				JOINT RightFoot
				{
					OFFSET -0.018946 -31.938126 -4.336299
					CHANNELS 3 Xrotation Yrotation Zrotation
					JOINT RightToeBase
					{
						OFFSET -0.943001 -26.722004 15.023500
						CHANNELS 3 Xrotation Yrotation Zrotation
						End Site
						{
							OFFSET 0 0 0
						}
					}
				}
			}
		}
	}
	JOINT Hips_virtual
	{
		OFFSET 0.000000 0.000000 0.000000
		CHANNELS 3 Xrotation Yrotation Zrotation
		JOINT Hips
		{
			OFFSET -0.000000 -0.000000 -0.000000
			CHANNELS 3 Xrotation Yrotation Zrotation
			JOINT Spine
			{
				OFFSET 0.000000 10.199997 -0.299500
				CHANNELS 3 Xrotation Yrotation Zrotation
				JOINT Spine1
				{
					OFFSET 0.000000 11.900002 -1.516600
					CHANNELS 3 Xrotation Yrotation Zrotation
					JOINT Spine2
					{
						OFFSET 0.000000 13.600006 -2.842500
						CHANNELS 3 Xrotation Yrotation Zrotation
						JOINT Neck_virtual
						{
							OFFSET 0.000000 0.000000 0.000000
							CHANNELS 3 Xrotation Yrotation Zrotation
							JOINT Neck
							{
								OFFSET 0.000000 9.624100 -2.890100
								CHANNELS 3 Xrotation Yrotation Zrotation
								JOINT Head
								{
									OFFSET 0.000000 14.068802 -1.351900
									CHANNELS 3 Xrotation Yrotation Zrotation
									End Site
									{
										OFFSET 0 0 0
									}
								}
							}
						}
						JOINT LeftShoulder_virtual
						{
							OFFSET 0.000000 0.000000 0.000000
							CHANNELS 3 Xrotation Yrotation Zrotation
							JOINT LeftShoulder
							{
								OFFSET 15.263000 10.923401 -0.547700
								CHANNELS 3 Xrotation Yrotation Zrotation
								JOINT LeftArm
								{
									OFFSET 25.438599 -2.830597 -13.032500
									CHANNELS 3 Xrotation Yrotation Zrotation
									JOINT LeftForeArm
									{
										OFFSET 29.960503 0.000000 0.000000
										CHANNELS 3 Xrotation Yrotation Zrotation
										JOINT LeftHand
										{
											OFFSET 27.849251 0.000000 0.000000
											CHANNELS 3 Xrotation Yrotation Zrotation
											End Site
											{
												OFFSET 0 0 0
											}
										}
									}
								}
							}
						}
						JOINT RightShoulder_virtual
						{
							OFFSET 0.000000 0.000000 0.000000
							CHANNELS 3 Xrotation Yrotation Zrotation
							JOINT RightShoulder
							{
								OFFSET -15.263000 10.923401 -0.547700
								CHANNELS 3 Xrotation Yrotation Zrotation
								JOINT RightArm
								{
									OFFSET -25.438599 -2.830597 -13.032500
									CHANNELS 3 Xrotation Yrotation Zrotation
									JOINT RightForeArm
									{
										OFFSET -29.960503 0.000000 0.000000
										CHANNELS 3 Xrotation Yrotation Zrotation
										JOINT RightHand
										{
											OFFSET -27.849251 0.000000 0.000000
											CHANNELS 3 Xrotation Yrotation Zrotation
											End Site
											{
												OFFSET 0 0 0
											}
										}
									}
								}
							}
						}
					}
				}
			}
		}
	}
}
MOTION
Frames: 6
Frame Time: 0.03333333
-2.630885 79.571846 1.391743 0.000000 0.000000 0.000000 -12.882556 -43.845774 -2.639912 -31.164248 -1.686352 13.627132 62.411455 -3.151241 4.214631 -25.319634 -5.778689 -12.997886 0.000000 0.000000 0.000000 -11.974861 -43.009032 -2.045252 -29.384010 -10.787474 -35.977550 65.641711 -2.525142 -5.156103 -21.638552 -9.002557 26.142498 0.000000 0.000000 0.000000 -11.894926 -42.610248 -1.360491 -1.819430 0.524283 -1.033187 13.892058 9.740085 -3.718036 1.140964 1.408578 -0.604602 0.000000 0.000000 0.000000 1.444249 1.642575 -0.783803 1.993814 2.609752 -0.573476 0.000000 0.000000 0.000000 1.114114 1.504889 -1.157240 0.014448 -0.376080 -9.609767 -50.386534 0.991513 -50.317980 175.967270 -65.712704 175.502913 0.000000 0.000000 0.000000 1.178657 1.796043 -0.961834 1.851854 7.289475 -5.416809 -52.486213 33.808456 84.623967 -175.989591 75.254526 173.762116 0.000000 0.000000 0.000000 
-2.184134 78.972778 1.155735 0.000000 0.000000 0.000000 -12.621857 -44.997781 -2.396783 -32.023154 -1.752810 13.461119 63.204296 -4.362119 4.592370 -23.921556 -5.730088 -14.170891 0.000000 0.000000 0.000000 -12.546502 -44.336520 -2.624332 -29.427867 -9.545020 -36.521520 66.500327 -1.767184 -5.750405 -20.357042 -8.365743 26.682487 0.000000 0.000000 0.000000 -12.167274 -43.540953 -1.640613 -1.915549 0.664487 -1.026638 14.428746 9.635475 -3.498045 1.025901 1.218018 -0.700298 0.000000 0.000000 0.000000 1.451960 1.507005 -0.794394 2.052658 2.747572 -0.506201 0.000000 0.000000 0.000000 0.979909 1.312710 -1.214782 0.092942 -0.606895 -9.828161 -50.501886 -0.643190 -50.113299 176.201559 -68.021622 175.627455 0.000000 0.000000 0.000000 1.060576 1.592096 -1.032944 2.009779 8.666722 -5.793871 -53.047856 34.872050 85.314459 -175.492012 75.250113 173.422792 0.000000 0.000000 0.000000 
-1.664214 77.593323 1.676315 0.000000 0.000000 0.000000 -12.538315 -46.305001 -2.120024 -35.203888 -2.063612 14.150011 66.982641 -7.127870 4.746302 -21.974168 -6.788569 -18.330940 0.000000 0.000000 0.000000 -13.210610 -45.824296 -3.110458 -30.104021 -7.709503 -37.871367 69.301217 -0.800212 -6.501235 -21.296134 -8.413770 26.213916 0.000000 0.000000 0.000000 -12.684327 -45.041221 -2.050195 -2.142580 0.575783 -0.918139 15.500266 9.519435 -3.217586 0.726329 0.989093 -0.956980 0.000000 0.000000 0.000000 1.143411 1.226886 -0.978343 1.968819 2.947532 -0.417396 0.000000 0.000000 0.000000 0.710838 1.075224 -1.331390 0.163565 -0.087288 -9.836813 -49.932101 -2.031869 -49.836817 176.315132 -71.293562 175.512694 0.000000 0.000000 0.000000 0.748151 1.323904 -1.264130 2.317910 11.109496 -5.853297 -51.267045 35.497545 84.738100 -175.386362 74.251895 173.675072 0.000000 0.000000 0.000000 
-1.240145 75.575508 3.045399 0.000000 0.000000 0.000000 -12.805838 -48.087609 -2.018831 -40.343093 -2.461193 15.884653 73.726715 -10.553727 4.851876 -19.514463 -8.684475 -23.909578 0.000000 0.000000 0.000000 -13.732329 -47.541593 -3.406312 -30.969734 -5.763308 -39.975612 72.758037 0.444674 -7.178890 -24.298120 -8.916283 25.571071 0.000000 0.000000 0.000000 -13.349954 -47.209042 -2.570618 -2.017914 0.770838 -0.528193 16.927157 9.373839 -2.961334 0.260061 0.825491 -1.298147 0.000000 0.000000 0.000000 0.583724 0.932359 -1.305837 1.715776 3.188983 -0.352366 0.000000 0.000000 0.000000 0.367770 0.862526 -1.488447 0.236624 1.249615 -9.643134 -48.378684 -1.967717 -48.939945 176.499369 -73.214574 175.343469 0.000000 0.000000 0.000000 0.365201 1.089228 -1.560952 2.598710 13.669718 -5.705178 -48.507710 35.360265 83.544367 -174.910899 73.605657 173.638080 0.000000 0.000000 0.000000 
-0.842432 73.107033 5.247944 0.000000 0.000000 0.000000 -13.502716 -50.793159 -2.292597 -46.440956 -2.879113 18.944348 81.865138 -13.768380 5.060037 -16.938505 -10.875668 -29.226417 0.000000 0.000000 0.000000 -14.068076 -49.940567 -3.588736 -31.969517 -3.605173 -42.798303 75.727421 2.441453 -7.698849 -27.026823 -8.853823 26.570851 0.000000 0.000000 0.000000 -14.129262 -50.067315 -3.169789 -2.054530 1.203629 -0.108262 18.547963 9.047356 -2.813099 -0.274232 0.823826 -1.665737 0.000000 0.000000 0.000000 -0.120819 0.768251 -1.722283 1.328226 3.482402 -0.318193 0.000000 0.000000 0.000000 0.012627 0.779246 -1.683574 0.283072 3.094649 -9.402765 -45.676105 0.501025 -47.157477 177.029460 -72.334818 175.483488 0.000000 0.000000 0.000000 0.045122 0.978159 -1.872135 2.751718 15.500404 -5.591256 -46.072710 34.508486 82.662829 -173.949345 74.208038 173.112756 0.000000 0.000000 0.000000 
-0.591077 70.701324 7.956608 0.000000 0.000000 0.000000 -14.403498 -54.182115 -2.951627 -52.124811 -3.364161 23.087197 88.930320 -16.158617 5.276891 -14.142929 -12.608165 -32.584237 0.000000 0.000000 0.000000 -14.143592 -53.125925 -3.679022 -33.195587 -1.046026 -46.164603 77.133832 5.354036 -8.128180 -27.701316 -7.781738 29.789409 0.000000 0.000000 0.000000 -14.658971 -53.550787 -3.652026 -1.833654 1.832149 -0.012780 20.075193 8.343100 -2.785519 -0.773455 1.020644 -1.954180 0.000000 0.000000 0.000000 -0.799163 0.771919 -2.098098 0.874068 3.820921 -0.323291 0.000000 0.000000 0.000000 -0.223747 0.851635 -1.911263 0.339338 4.939104 -9.364909 -42.993596 5.108687 -44.683699 177.683970 -68.733061 175.837647 0.000000 0.000000 0.000000 -0.214490 1.035479 -2.081408 2.742256 16.191491 -5.635517 -45.143169 34.097397 82.897569 -172.452031 76.034595 171.915547 0.000000 0.000000 0.000000 
